<?xml version="1.0" encoding="UTF-8"?>
<svg version="1.1" xmlns="http://www.w3.org/2000/svg" width="300" height="120">
<path d="M0 0 C99 0 198 0 300 0 C300 39.6 300 79.2 300 120 C201 120 102 120 0 120 C0 80.4 0 40.8 0 0 Z " fill="#FEFEFE" transform="translate(0,0)"/>
<path d="M0 0 C2.80006853 2.50532447 3.31275941 3.21825706 3.56787109 6.93481445 C3.63933906 10.08698486 3.69698431 13.23848337 3.72509766 16.39135742 C3.74163597 17.75025586 3.76889921 19.10906805 3.80712891 20.4675293 C3.86209607 22.43224686 3.88066889 24.39787525 3.8984375 26.36328125 C3.9281665 28.127323 3.9281665 28.127323 3.95849609 29.92700195 C3.20889996 34.03535331 1.50949665 35.47359457 -1.625 38.125 C-1.955 38.455 -2.285 38.785 -2.625 39.125 C-3.99108326 39.22035213 -5.36205455 39.2468867 -6.73146057 39.24525452 C-7.61632141 39.24662918 -8.50118225 39.24800385 -9.41285706 39.24942017 C-10.88020546 39.24402725 -10.88020546 39.24402725 -12.37719727 39.23852539 C-13.4014682 39.23867142 -14.42573914 39.23881744 -15.48104858 39.2389679 C-18.88452229 39.23826828 -22.28794204 39.23047363 -25.69140625 39.22265625 C-28.04410268 39.22079224 -30.3967995 39.21936826 -32.74949646 39.21836853 C-38.95556705 39.21454199 -45.1616144 39.20471055 -51.36767578 39.19366455 C-57.69498378 39.18345334 -64.02229552 39.17887154 -70.34960938 39.17382812 C-82.77475146 39.1630884 -95.19987017 39.14549051 -107.625 39.125 C-107.625 29.225 -107.625 19.325 -107.625 9.125 C-77.23370662 4.99948506 -77.23370662 4.99948506 -65.61791992 3.84423828 C-59.10900189 3.19327526 -52.61824165 2.41622815 -46.125 1.625 C-5.27516908 -3.31087895 -5.27516908 -3.31087895 0 0 Z " fill="#212121" transform="translate(221.625,37.875)"/>
<path d="M0 0 C-0.19335938 0.53882813 -0.38671875 1.07765625 -0.5859375 1.6328125 C-3.80602453 11.80318639 -4.22039181 22.42280233 -5 33 C-3.35 33 -1.7 33 0 33 C-0.00523682 32.06615479 -0.01047363 31.13230957 -0.01586914 30.17016602 C-0.0328762 26.71687204 -0.04543302 23.26362233 -0.05493164 19.81030273 C-0.05997121 18.31355082 -0.06680287 16.81680384 -0.07543945 15.32006836 C-0.08752159 13.17300193 -0.09323191 11.02600038 -0.09765625 8.87890625 C-0.10289307 7.5854126 -0.10812988 6.29191895 -0.11352539 4.95922852 C0 2 0 2 1 1 C3.24526468 0.82073148 5.49802739 0.73188535 7.75 0.6875 C9.59851563 0.63142578 9.59851563 0.63142578 11.484375 0.57421875 C15.65012532 1.0787374 17.2406937 1.85387507 20 5 C21.10441172 9.83103004 21.45020445 15.58939525 18.8203125 19.9609375 C15.4524346 22.97981251 13.57578062 23 9 23 C9 26.3 9 29.6 9 33 C10.65 33 12.3 33 14 33 C14 33.33 14 33.66 14 34 C-2.83 34 -19.66 34 -37 34 C-37 24.1 -37 14.2 -37 4 C-32.194375 3.34 -27.38875 2.68 -22.4375 2 C-20.93501709 1.79117188 -19.43253418 1.58234375 -17.88452148 1.3671875 C-16.68384033 1.20476563 -15.48315918 1.04234375 -14.24609375 0.875 C-13.02591553 0.70742188 -11.8057373 0.53984375 -10.54858398 0.3671875 C-7.00459404 0.00047536 -3.56010125 -0.06389413 0 0 Z " fill="#494949" transform="translate(151,43)"/>
<path d="M0 0 C1.63195312 -0.03867187 1.63195312 -0.03867187 3.296875 -0.078125 C6.72191988 0.30243554 7.85563448 0.80213088 10.25 3.25 C10.75170898 6.20507812 10.75170898 6.20507812 10.74609375 9.78125 C10.74673828 11.06644531 10.74738281 12.35164063 10.74804688 13.67578125 C10.73765381 14.34432129 10.72726074 15.01286133 10.71655273 15.70166016 C10.68759447 17.74333974 10.69594325 19.78242216 10.70898438 21.82421875 C10.64455705 31.70637847 10.64455705 31.70637847 8.91040039 34.09570312 C5.93115051 36.16685346 3.30935837 36.37120375 -0.19921875 36.34765625 C-0.96322998 36.34515869 -1.72724121 36.34266113 -2.5144043 36.34008789 C-3.47902588 36.33098389 -4.44364746 36.32187988 -5.4375 36.3125 C-10.0471875 36.2815625 -10.0471875 36.2815625 -14.75 36.25 C-14.75 24.7 -14.75 13.15 -14.75 1.25 C-9.6826409 0.61658011 -5.04766165 0.07245447 0 0 Z " fill="#FBFBFB" transform="translate(209.75,38.75)"/>
<path d="M0 0 C0.94875 0.00902344 1.8975 0.01804688 2.875 0.02734375 C3.57625 0.03894531 4.2775 0.05054688 5 0.0625 C5 2.0425 5 4.0225 5 6.0625 C2.03 6.0625 -0.94 6.0625 -4 6.0625 C-4 8.7025 -4 11.3425 -4 14.0625 C-1.36 14.0625 1.28 14.0625 4 14.0625 C4 16.0425 4 18.0225 4 20.0625 C1.36 20.0625 -1.28 20.0625 -4 20.0625 C-4 22.7025 -4 25.3425 -4 28.0625 C-1.03 28.0625 1.94 28.0625 5 28.0625 C5 30.0425 5 32.0225 5 34.0625 C-1.27 34.0625 -7.54 34.0625 -14 34.0625 C-14 23.1725 -14 12.2825 -14 1.0625 C-9.05862152 0.44482769 -4.86059919 -0.06075749 0 0 Z " fill="#EEEEEE" transform="translate(187,40.9375)"/>
<path d="M0 0 C14 0 14 0 19 4 C19.62890625 7.09375 19.62890625 7.09375 19.5625 10.5 C19.56378906 11.6240625 19.56507813 12.748125 19.56640625 13.90625 C18.89095312 17.59562159 18.01968447 18.82117337 15 21 C12.21857957 21.50755847 9.8542771 21.19028514 7 21 C7 24.3 7 27.6 7 31 C4.69 31 2.38 31 0 31 C0 20.77 0 10.54 0 0 Z " fill="#F8F8F8" transform="translate(152,44)"/>
<path d="M0 0 C-0.99 0.495 -0.99 0.495 -2 1 C-2 12.22 -2 23.44 -2 35 C-11 36.125 -11 36.125 -15 35 C-15 31.7 -15 28.4 -15 25 C-13.906875 24.731875 -12.81375 24.46375 -11.6875 24.1875 C-7.61364276 22.96054349 -7.61364276 22.96054349 -5 20 C-4.48511845 16.90680017 -4.48511845 16.90680017 -4.5625 13.5 C-4.54316406 12.3553125 -4.52382812 11.210625 -4.50390625 10.03125 C-4.72504897 6.48476529 -4.72504897 6.48476529 -9 4 C-13.62 4 -18.24 4 -23 4 C-23.33 14.23 -23.66 24.46 -24 35 C-25.65 35 -27.3 35 -29 35 C-29.22587113 26.40434866 -29.01800129 18.37536484 -27 10 C-26.87496094 9.21238281 -26.74992188 8.42476562 -26.62109375 7.61328125 C-26.07455878 5.21627355 -25.63113909 3.8486243 -24 2 C-16.54248965 -0.85175196 -7.86484265 -0.25100562 0 0 Z " fill="#060606" transform="translate(175,41)"/>
<path d="M0 0 C1.98 0 3.96 0 6 0 C6 3.63 6 7.26 6 11 C6.99 11 7.98 11 9 11 C9 7.37 9 3.74 9 0 C10.65 0 12.3 0 14 0 C14 8.91 14 17.82 14 27 C12.35 27 10.7 27 9 27 C9 23.37 9 19.74 9 16 C8.01 16 7.02 16 6 16 C6 19.96 6 23.92 6 28 C4.02 28 2.04 28 0 28 C0 18.76 0 9.52 0 0 Z " fill="#F5F5F5" transform="translate(117,48)"/>
<path d="M0 0 C1.98 0 3.96 0 6 0 C5.58999504 3.8950471 5.19513703 7.39019678 4 11.125 C2.20375966 16.84884048 2.31346072 23.05249526 2 29 C-0.31 29 -2.62 29 -5 29 C-5.03738281 28.10539062 -5.07476562 27.21078125 -5.11328125 26.2890625 C-5.48031736 19.53847681 -6.10193068 13.47018479 -8.37890625 7.0859375 C-9 5 -9 5 -9 1 C-7.35 1 -5.7 1 -4 1 C-3.34 2.65 -2.68 4.3 -2 6 C-1.34 4.02 -0.68 2.04 0 0 Z " fill="#F4F4F4" transform="translate(143,46)"/>
<path d="M0 0 C5.97873264 0.11935764 5.97873264 0.11935764 7.08984375 1.23046875 C7.16164339 2.74974913 7.17376382 4.27214357 7.15234375 5.79296875 C7.14332031 6.61925781 7.13429688 7.44554687 7.125 8.296875 C7.11339844 8.93496094 7.10179688 9.57304688 7.08984375 10.23046875 C6.09984375 10.23046875 5.10984375 10.23046875 4.08984375 10.23046875 C4.08984375 8.58046875 4.08984375 6.93046875 4.08984375 5.23046875 C2.43984375 5.23046875 0.78984375 5.23046875 -0.91015625 5.23046875 C-0.91015625 10.84046875 -0.91015625 16.45046875 -0.91015625 22.23046875 C0.73984375 22.23046875 2.38984375 22.23046875 4.08984375 22.23046875 C4.08984375 20.58046875 4.08984375 18.93046875 4.08984375 17.23046875 C3.09984375 17.23046875 2.10984375 17.23046875 1.08984375 17.23046875 C1.08984375 15.58046875 1.08984375 13.93046875 1.08984375 12.23046875 C3.39984375 12.23046875 5.70984375 12.23046875 8.08984375 12.23046875 C8.08984375 16.85046875 8.08984375 21.47046875 8.08984375 26.23046875 C-0.40625 26.328125 -0.40625 26.328125 -2.91015625 26.23046875 C-5.38614358 23.75448142 -4.09566885 17.12186717 -4.09765625 13.79296875 C-4.10990234 12.71724609 -4.12214844 11.64152344 -4.13476562 10.53320312 C-4.13669922 9.50646484 -4.13863281 8.47972656 -4.140625 7.421875 C-4.14473389 6.47513916 -4.14884277 5.52840332 -4.15307617 4.55297852 C-3.84229064 1.58161891 -3.05924699 0.3691116 0 0 Z " fill="#1C1C1C" transform="translate(78.91015625,50.76953125)"/>
<path d="M0 0 C0 1.98 0 3.96 0 6 C-1.98 6 -3.96 6 -6 6 C-6 7.98 -6 9.96 -6 12 C-4.02 12 -2.04 12 0 12 C0 13.65 0 15.3 0 17 C-1.98 17 -3.96 17 -6 17 C-6 18.98 -6 20.96 -6 23 C-4.02 23 -2.04 23 0 23 C0 24.65 0 26.3 0 28 C-3.3 28 -6.6 28 -10 28 C-10 19.09 -10 10.18 -10 1 C-6.33418546 0.26683709 -3.63300168 -0.10380005 0 0 Z " fill="#1A191A" transform="translate(98,49)"/>
<path d="M0 0 C3.3 0 6.6 0 10 0 C10 6.93 10 13.86 10 21 C6.7 21 3.4 21 0 21 C0 18.69 0 16.38 0 14 C2.64 14 5.28 14 8 14 C8 12.02 8 10.04 8 8 C5.36 8 2.72 8 0 8 C0 5.36 0 2.72 0 0 Z " fill="#131313" transform="translate(183,47)"/>
<path d="M0 0 C0.66 0.99 1.32 1.98 2 3 C-0.64 3 -3.28 3 -6 3 C-6 14.55 -6 26.1 -6 38 C-6.99 38 -7.98 38 -9 38 C-9 36.02 -9 34.04 -9 32 C-11.97 32 -14.94 32 -18 32 C-18 31.67 -18 31.34 -18 31 C-14.7 31 -11.4 31 -8 31 C-8.33 22.09 -8.66 13.18 -9 4 C-14.32501538 4.36640986 -14.32501538 4.36640986 -19.64892578 4.74829102 C-23.93931687 5.02213488 -27.76080805 4.91420274 -32 4 C-32 3.67 -32 3.34 -32 3 C-30.70964844 2.86722656 -29.41929687 2.73445313 -28.08984375 2.59765625 C-26.37238852 2.41934123 -24.65494101 2.24095187 -22.9375 2.0625 C-21.66616211 1.93198242 -21.66616211 1.93198242 -20.36914062 1.79882812 C-1.64543625 -0.15306384 -1.64543625 -0.15306384 0 0 Z " fill="#4C4C4C" transform="translate(201,37)"/>
<path d="M0 0 C-0.33 1.65 -0.66 3.3 -1 5 C-1.33 4.34 -1.66 3.68 -2 3 C-3.98 3 -5.96 3 -8 3 C-8.33 5.31 -8.66 7.62 -9 10 C-9.66 9.67 -10.32 9.34 -11 9 C-11.625 6.4375 -11.625 6.4375 -12 4 C-13.65 4 -15.3 4 -17 4 C-16.649375 5.0725 -16.29875 6.145 -15.9375 7.25 C-14.76923077 11.92307692 -14.76923077 11.92307692 -16 15 C-16.33 13.02 -16.66 11.04 -17 9 C-17.66 9 -18.32 9 -19 9 C-19 16.92 -19 24.84 -19 33 C-21.31 33 -23.62 33 -26 33 C-26 29.04 -26 25.08 -26 21 C-25.67 21 -25.34 21 -25 21 C-25 24.63 -25 28.26 -25 32 C-23.35 32 -21.7 32 -20 32 C-20 23.09 -20 14.18 -20 5 C-21.65 5 -23.3 5 -25 5 C-25 8.63 -25 12.26 -25 16 C-25.33 16 -25.66 16 -26 16 C-26 11.71 -26 7.42 -26 3 C-22.98017116 2.49317558 -19.95937183 1.99436665 -16.9375 1.5 C-16.08994141 1.35691406 -15.24238281 1.21382812 -14.36914062 1.06640625 C-9.50727611 0.27799579 -4.92471814 -0.16037074 0 0 Z " fill="#777777" transform="translate(151,43)"/>
<path d="M0 0 C0 1.65 0 3.3 0 5 C-1.32 5 -2.64 5 -4 5 C-4 12.92 -4 20.84 -4 29 C-5.32 29 -6.64 29 -8 29 C-8 21.41 -8 13.82 -8 6 C-9.32 6 -10.64 6 -12 6 C-12 4.35 -12 2.7 -12 1 C-7.9472484 0.01751476 -4.16138263 -0.08159574 0 0 Z " fill="#040404" transform="translate(112,48)"/>
<path d="M0 0 C0.33 0 0.66 0 1 0 C1 4.95 1 9.9 1 15 C-7.42857143 16.28571429 -7.42857143 16.28571429 -12 15 C-12 11.7 -12 8.4 -12 5 C-11.30132812 4.80664062 -10.60265625 4.61328125 -9.8828125 4.4140625 C-8.97273437 4.15367188 -8.06265625 3.89328125 -7.125 3.625 C-6.22007812 3.36976562 -5.31515625 3.11453125 -4.3828125 2.8515625 C-1.85430274 2.1395685 -1.85430274 2.1395685 0 0 Z " fill="#000000" transform="translate(172,61)"/>
<path d="M0 0 C0 4.29 0 8.58 0 13 C-0.66 13 -1.32 13 -2 13 C-2 9.37 -2 5.74 -2 2 C-3.98 2 -5.96 2 -8 2 C-8 11.24 -8 20.48 -8 30 C-6.02 30 -4.04 30 -2 30 C-2 30.33 -2 30.66 -2 31 C-4.97 31 -7.94 31 -11 31 C-11 21.1 -11 11.2 -11 1 C-6 0 -6 0 0 0 Z M-2 19 C-1.67 19 -1.34 19 -1 19 C-1 22.63 -1 26.26 -1 30 C-1.33 30 -1.66 30 -2 30 C-2 26.37 -2 22.74 -2 19 Z " fill="#070707" transform="translate(125,46)"/>
<path d="M0 0 C1.65 0 3.3 0 5 0 C5 7.92 5 15.84 5 24 C3.35 24 1.7 24 0 24 C0 16.08 0 8.16 0 0 Z " fill="#1F1F1F" transform="translate(204,45)"/>
<path d="M0 0 C5.97873264 0.11935764 5.97873264 0.11935764 7.08984375 1.23046875 C7.16164339 2.74974913 7.17376382 4.27214357 7.15234375 5.79296875 C7.14332031 6.61925781 7.13429688 7.44554687 7.125 8.296875 C7.11339844 8.93496094 7.10179688 9.57304688 7.08984375 10.23046875 C6.09984375 10.23046875 5.10984375 10.23046875 4.08984375 10.23046875 C4.08984375 8.58046875 4.08984375 6.93046875 4.08984375 5.23046875 C2.43984375 5.23046875 0.78984375 5.23046875 -0.91015625 5.23046875 C-0.91015625 9.52046875 -0.91015625 13.81046875 -0.91015625 18.23046875 C-1.24015625 18.23046875 -1.57015625 18.23046875 -1.91015625 18.23046875 C-2.24015625 20.54046875 -2.57015625 22.85046875 -2.91015625 25.23046875 C-3.24015625 25.23046875 -3.57015625 25.23046875 -3.91015625 25.23046875 C-3.96802293 21.43886578 -4.00370679 17.64737564 -4.03515625 13.85546875 C-4.05191406 12.77523437 -4.06867188 11.695 -4.0859375 10.58203125 C-4.09238281 9.55078125 -4.09882812 8.51953125 -4.10546875 7.45703125 C-4.11594238 6.50393066 -4.12641602 5.55083008 -4.13720703 4.56884766 C-3.84744856 1.584647 -3.07149635 0.37058954 0 0 Z " fill="#121112" transform="translate(78.91015625,50.76953125)"/>
<path d="M0 0 C0.66 0 1.32 0 2 0 C5.11584616 8.04926924 5.33328851 15.43325085 5 24 C3.35 24 1.7 24 0 24 C0 16.08 0 8.16 0 0 Z " fill="#000000" transform="translate(132,52)"/>
<path d="M0 0 C0.66 0 1.32 0 2 0 C2.33 3.96 2.66 7.92 3 12 C0.36 12 -2.28 12 -5 12 C-5 13.65 -5 15.3 -5 17 C-4.01 17 -3.02 17 -2 17 C-2 18.65 -2 20.3 -2 22 C-3.65 22 -5.3 22 -7 22 C-7 16.39 -7 10.78 -7 5 C-5.35 5 -3.7 5 -2 5 C-2 6.65 -2 8.3 -2 10 C-1.01 10 -0.02 10 1 10 C0.67 6.7 0.34 3.4 0 0 Z " fill="#FAFAFA" transform="translate(85,51)"/>
<path d="M0 0 C-0.99 0.495 -0.99 0.495 -2 1 C-1.98428955 1.55985596 -1.9685791 2.11971191 -1.95239258 2.6965332 C-1.89000152 5.2350859 -1.85099782 7.77347729 -1.8125 10.3125 C-1.78736328 11.19357422 -1.76222656 12.07464844 -1.73632812 12.98242188 C-1.72666016 13.82998047 -1.71699219 14.67753906 -1.70703125 15.55078125 C-1.6913208 16.33106689 -1.67561035 17.11135254 -1.65942383 17.9152832 C-2.08152696 20.49903853 -3.01489942 21.36292167 -5 23 C-5.66 22.67 -6.32 22.34 -7 22 C-6.34 21.34 -5.68 20.68 -5 20 C-4.60310424 16.97827466 -4.60310424 16.97827466 -4.625 13.5625 C-4.59664062 12.40878906 -4.56828125 11.25507812 -4.5390625 10.06640625 C-4.70838568 6.96110583 -4.70838568 6.96110583 -6.7265625 5.1640625 C-9.09661836 3.95052874 -11.13891798 3.31167744 -13.75 2.8125 C-14.94882813 2.57466797 -14.94882813 2.57466797 -16.171875 2.33203125 C-16.77515625 2.22246094 -17.3784375 2.11289062 -18 2 C-18 1.67 -18 1.34 -18 1 C-12.03325384 -0.32594359 -6.07416385 -0.0884587 0 0 Z " fill="#1C1C1C" transform="translate(175,41)"/>
<path d="M0 0 C3.3 0 6.6 0 10 0 C10 2.31 10 4.62 10 7 C6.7 7 3.4 7 0 7 C0 4.69 0 2.38 0 0 Z " fill="#050505" transform="translate(183,61)"/>
<path d="M0 0 C0 4.29 0 8.58 0 13 C-0.66 13 -1.32 13 -2 13 C-2 9.37 -2 5.74 -2 2 C-4.64 2 -7.28 2 -10 2 C-10 11.57 -10 21.14 -10 31 C-10.33 31 -10.66 31 -11 31 C-11 21.1 -11 11.2 -11 1 C-6 0 -6 0 0 0 Z " fill="#252525" transform="translate(125,46)"/>
<path d="M0 0 C1.32 0 2.64 0 4 0 C4 3.63 4 7.26 4 11 C2.68 11 1.36 11 0 11 C0 7.37 0 3.74 0 0 Z " fill="#3D3D3D" transform="translate(159,49)"/>
<path d="M0 0 C0.33 0 0.66 0 1 0 C1 3.96 1 7.92 1 12 C2.32 12 3.64 12 5 12 C5 13.65 5 15.3 5 17 C3.35 17 1.7 17 0 17 C0 11.39 0 5.78 0 0 Z " fill="#CDCDCD" transform="translate(78,56)"/>
<path d="M0 0 C-0.33 1.65 -0.66 3.3 -1 5 C-1.33 4.34 -1.66 3.68 -2 3 C-4.58605332 2.5316735 -4.58605332 2.5316735 -7.5625 2.375 C-9.08037109 2.26285156 -9.08037109 2.26285156 -10.62890625 2.1484375 C-11.80259766 2.07496094 -11.80259766 2.07496094 -13 2 C-13 1.67 -13 1.34 -13 1 C-8.60563789 0.14256349 -4.47427924 -0.08948558 0 0 Z " fill="#636363" transform="translate(151,43)"/>
<path d="M0 0 C2.64 0 5.28 0 8 0 C7.67 2.64 7.34 5.28 7 8 C6.34 7.67 5.68 7.34 5 7 C5 5.02 5 3.04 5 1 C3.35 1 1.7 1 0 1 C0 0.67 0 0.34 0 0 Z " fill="#242424" transform="translate(135,45)"/>
<path d="M0 0 C0.66 0 1.32 0 2 0 C2.33 3.96 2.66 7.92 3 12 C1.35 11.67 -0.3 11.34 -2 11 C-1.01 10.67 -0.02 10.34 1 10 C0.67 6.7 0.34 3.4 0 0 Z " fill="#B5B4B5" transform="translate(85,51)"/>
</svg>
